<?xml version="1.0" encoding="utf-8"?>
<!-- Generator: Adobe Illustrator 19.1.0, SVG Export Plug-In . SVG Version: 6.00 Build 0)  -->
<svg version="1.1" id="Capa_1" xmlns="http://www.w3.org/2000/svg" xmlns:xlink="http://www.w3.org/1999/xlink" x="0px" y="0px"
	 viewBox="0 0 512.6 141.4" style="enable-background:new 0 0 512.6 141.4;" xml:space="preserve">
<style type="text/css">
	.st0{fill:#FFFFFF;}
</style>
<g>
	<path class="st0" d="M0,42.9C0,21.3,18.7,3.9,42.3,3.9c8.4,0,15.5,2.1,23.2,0.2l-3.1,20.7l-0.5,0.1C59.4,10.4,53.1,4.6,43,4.6
		C21.8,4.6,13,30.4,13,47.1c0,12,4.7,21.5,16.2,21.5c11.4,0,21.1-9.4,29-21.4h0.4l-7.7,19.1c-5.6,1.6-13.6,3.1-20.9,3.1
		C9.9,69.4,0,58.8,0,42.9z"/>
	<path class="st0" d="M78,9.7c1.2-5.1,0-7-5.3-7L72.9,2l18.8-2l-8.3,36c4.7-4.4,11.7-10.6,19.1-10.6c5.7,0,10.4,3.8,8.2,13.5
		l-5.1,22.6c-0.7,3.1,0,4.7,2.2,4.7c2,0,4.7-1.4,6.5-2.5l-0.1,0.7c-4.4,2.8-8.9,4.8-13,4.8c-5.9,0-8.2-4.1-6.7-10.2l5.1-21.8
		c1-4.4-0.1-7.2-3.9-7.2c-4.6,0-9.1,4.1-12.6,7.2l-7.1,31H64.5L78,9.7z"/>
	<path class="st0" d="M120.7,51.7c0-15,13.5-26.3,27.8-26.3c9.1,0,15.5,4.5,15.5,10.8c0,11.4-20.4,11.5-30.7,10.6
		c-0.4,2.3-0.6,4.5-0.6,6.5c0,7.9,3.3,13.6,10.8,13.6c7,0,12.9-5,16.5-9.4l0.5,0.4c-4.2,4.9-11,11.3-21.9,11.3
		C126.3,69.3,120.7,61.3,120.7,51.7z M133.4,46.1c10.3,0.5,20.1-2.8,20.1-13.3c0-4-1.4-6.7-5.2-6.7
		C141.1,26.1,135.5,36.3,133.4,46.1z"/>
	<path class="st0" d="M185.7,84.2c5.3,0,7.8-1.8,9.1-7.2l3.3-14.4c-3.6,3.5-8.8,6.7-15.1,6.7c-9.4,0-13.7-7.5-13.7-16.3
		c0-14.4,11.5-27.5,27.3-27.5c6.4,0,10.2,2.2,20.9,0.4h0.4l-11.7,51.1c-1.2,5.1-0.1,7.2,5.3,7.2l-0.2,0.6h-25.8L185.7,84.2z
		 M181.3,54.7c0,6,2.1,11.3,7.8,11.3c3.4,0,6.6-1.9,9.3-4.5l6.6-28.5c0.5-3-0.9-6.8-6.5-6.8C186.7,26.2,181.3,45,181.3,54.7z"/>
	<path class="st0" d="M226.9,55.6L232,33c0.7-3.1,0-4.7-2.2-4.7c-2,0-4.7,1.4-6.5,2.5l0.1-0.7c4.4-2.8,8.9-4.8,13-4.8
		c5.9,0,8.2,4.1,6.7,10.2l-4.9,20.9c-1.2,5.4,0.3,8.4,4.4,8.4c4.4,0,8.5-3.4,11.5-6l7.5-32.5h11.4l-8,35.2c-0.7,3.1,0,4.7,2.2,4.7
		c2,0,4.7-1.4,6.5-2.5l-0.1,0.7c-4.4,2.8-8.9,4.8-13,4.8c-5.3,0-7.7-3.4-6.9-9.3c-4.4,3.8-11.3,9.2-18.5,9.2
		C229.3,69.1,224.8,65.3,226.9,55.6z"/>
	<path class="st0" d="M280.6,51.7c0-15,13.5-26.3,27.8-26.3c9.1,0,15.5,4.5,15.5,10.8c0,11.4-20.4,11.5-30.7,10.6
		c-0.4,2.3-0.6,4.5-0.6,6.5c0,7.9,3.3,13.6,10.8,13.6c7,0,12.9-5,16.5-9.4l0.5,0.4c-4.2,4.9-11,11.3-21.9,11.3
		C286.2,69.3,280.6,61.3,280.6,51.7z M293.3,46.1c10.3,0.5,20.1-2.8,20.1-13.3c0-4-1.4-6.7-5.2-6.7C301,26.1,295.4,36.3,293.3,46.1z
		"/>
</g>
<g>
	<path class="st0" d="M58.9,115c0-22.5,21-39.2,43.5-39.2c8,0,16.9,2.1,24.6,0.2l-3,20.2l-0.5,0.1c-2-13.8-9.8-19.8-20.2-19.8
		c-20.9,0-31.4,24.3-31.4,42.2c0,12.2,5,21.8,17.6,21.8c5.8,0,10.7-2,14.9-4.1l3.6-15.4c1.6-7.2,0.8-10.2-7.3-10.2l0.2-0.7h30.3
		L131,111c-7.4,0-9.1,2.1-10.7,9.4l-3.9,16.6c-6.7,2-15.8,4.4-26,4.4C68.5,141.4,58.9,130.2,58.9,115z"/>
	<path class="st0" d="M133.1,123.7c0-15,13.5-26.3,27.8-26.3c9.1,0,15.5,4.5,15.5,10.8c0,11.4-20.4,11.5-30.7,10.6
		c-0.4,2.3-0.6,4.5-0.6,6.5c0,7.9,3.3,13.6,10.8,13.6c7,0,12.9-5,16.5-9.4l0.5,0.4c-4.2,4.9-11,11.3-21.9,11.3
		C138.7,141.3,133.1,133.3,133.1,123.7z M145.8,118.1c10.3,0.5,20.1-2.8,20.1-13.3c0-4-1.4-6.7-5.2-6.7
		C153.5,98.1,147.8,108.3,145.8,118.1z"/>
	<path class="st0" d="M190.9,105c0.6-3.1-0.1-4.7-2.2-4.7c-2,0-4.8,1.4-6.6,2.5l0.1-0.7c4.4-2.8,9-4.8,13.1-4.8
		c5.7,0,8.1,4,6.6,10.5c4.8-4.4,11.6-10.5,19-10.5c5.8,0,10.4,3.8,8.3,13.5l-5.2,22.6c-0.6,3.1,0.1,4.7,2.2,4.7c2,0,4.8-1.4,6.6-2.5
		l-0.1,0.7c-4.4,2.8-9,4.8-13.1,4.8c-5.8,0-8.1-4.1-6.6-10.2l5-21.8c1-4.4,0-7.2-3.9-7.2c-4.5,0-9,4.1-12.4,7.1l-7.1,31.1h-11.6
		L190.9,105z"/>
	<path class="st0" d="M238.9,123.7c0-15,13.5-26.3,27.8-26.3c9.1,0,15.5,4.5,15.5,10.8c0,11.4-20.4,11.5-30.7,10.6
		c-0.4,2.3-0.6,4.5-0.6,6.5c0,7.9,3.3,13.6,10.8,13.6c7,0,12.9-5,16.5-9.4l0.5,0.4c-4.2,4.9-11,11.3-21.9,11.3
		C244.5,141.3,238.9,133.3,238.9,123.7z M251.7,118.1c10.3,0.5,20.1-2.8,20.1-13.3c0-4-1.4-6.7-5.2-6.7
		C259.3,98.1,253.7,108.3,251.7,118.1z"/>
	<path class="st0" d="M296.8,105c0.6-3.1-0.1-4.7-2.2-4.7c-2,0-4.8,1.4-6.6,2.5l0.1-0.7c4.4-2.8,9-4.8,13-4.8
		c5.8,0,8.1,4.1,6.5,10.2l-1.1,4.9c3.5-7.4,9.1-15.1,15.4-15.1c4.1,0,6.6,3.3,6.6,6.8c0,3.9-3,6.8-6.5,6.8c-3.5,0-6.4-3-6.4-6.7
		c0-0.4,0.1-0.8,0.1-1.2c-3.6,1.3-6.8,5.8-9.3,10.9l-6,26.1h-11.5L296.8,105z"/>
	<path class="st0" d="M329.1,124.5c0-13.9,11.1-27.1,25.9-27.1c5.8,0,9.5,2.1,11.1,4.7l10.8-4.1l0.5,0.1l-8.1,35.4
		c-0.6,3.1,0.1,4.7,2.2,4.7c2,0,4.8-1.4,6.6-2.5l-0.1,0.7c-4.4,2.8-9,4.8-13.1,4.8c-4.6,0-7.1-2.5-7.1-6.7
		c-3.6,3.6-8.5,6.8-14.6,6.8C334.2,141.3,329.1,133.9,329.1,124.5z M357.9,133.4l6.3-27.6c0.3-3.8-1.9-7.4-6.4-7.4
		c-9.6,0-16.7,17.3-16.7,28.5c0,6.1,2.1,11.4,7.8,11.4C352.4,138.2,355.4,136.1,357.9,133.4z"/>
	<path class="st0" d="M388,128.7l6.7-29h-7l0.3-1.2h6.9l2.6-10.8l11.8-2.1l-3,13h12.4l-0.3,1.2h-12.4l-7,30.5
		c-1.1,5,0.1,7.8,3.8,7.8c3.9,0,7.5-3,10.3-5.7l0.4,0.4c-4.1,4-9.5,8.5-16.6,8.5C390,141.2,386.1,137,388,128.7z"/>
	<path class="st0" d="M418.6,123.2c0-15.2,14-25.8,27.4-25.8c9.2,0,19.4,5.1,19.4,18.1c0,15.3-14.1,25.8-27.5,25.8
		C428.2,141.3,418.6,135.8,418.6,123.2z M454.4,108.8c0-7.7-3.3-10.6-7.7-10.6c-11.6,0-16.9,21.9-16.9,31.6c0,7.7,3.4,10.6,7.7,10.6
		C449.1,140.4,454.4,118.5,454.4,108.8z"/>
	<path class="st0" d="M481,105c0.6-3.1-0.1-4.7-2.2-4.7c-2,0-4.8,1.4-6.6,2.5l0.1-0.7c4.4-2.8,9-4.8,13-4.8c5.8,0,8.1,4.1,6.5,10.2
		l-1.1,4.9c3.5-7.4,9.1-15.1,15.4-15.1c4.1,0,6.6,3.3,6.6,6.8c0,3.9-3,6.8-6.5,6.8c-3.5,0-6.4-3-6.4-6.7c0-0.4,0.1-0.8,0.1-1.2
		c-3.6,1.3-6.8,5.8-9.3,10.9l-6,26.1h-11.5L481,105z"/>
</g>
</svg>
